<svg width="25" height="25" viewBox="0 0 25 25" fill="none" xmlns="http://www.w3.org/2000/svg">
<path d="M11.25 3.69318C11.5208 3.69318 11.745 3.6125 11.9225 3.45114C12.1 3.28977 12.1883 3.08636 12.1875 2.84091C12.1867 2.59545 12.0979 2.39205 11.9212 2.23068C11.7446 2.06932 11.5208 1.98864 11.25 1.98864C10.9792 1.98864 10.7554 2.06932 10.5787 2.23068C10.4021 2.39205 10.3133 2.59545 10.3125 2.84091C10.3117 3.08636 10.4004 3.29015 10.5787 3.45227C10.7571 3.61439 10.9808 3.6947 11.25 3.69318ZM18.75 25C17.0208 25 15.5471 24.4458 14.3287 23.3375C13.1104 22.2292 12.5008 20.8894 12.5 19.3182C12.4992 17.747 13.1087 16.4072 14.3287 15.2989C15.5487 14.1905 17.0225 13.6364 18.75 13.6364C20.4775 13.6364 21.9517 14.1905 23.1725 15.2989C24.3933 16.4072 25.0025 17.747 25 19.3182C24.9975 20.8894 24.3879 22.2295 23.1712 23.3386C21.9546 24.4477 20.4808 25.0015 18.75 25ZM2.5 22.7273C1.8125 22.7273 1.22417 22.5049 0.735 22.0602C0.245833 21.6155 0.000833333 21.0803 0 20.4545V4.54545C0 3.92045 0.245 3.38561 0.735 2.94091C1.225 2.49621 1.81333 2.27348 2.5 2.27273H7.75C8.02083 1.59091 8.47416 1.04167 9.11 0.625C9.74583 0.208333 10.4592 0 11.25 0C12.0408 0 12.7546 0.208333 13.3912 0.625C14.0279 1.04167 14.4808 1.59091 14.75 2.27273H20C20.6875 2.27273 21.2762 2.49545 21.7662 2.94091C22.2562 3.38636 22.5008 3.92121 22.5 4.54545V10.7386C22.5 11.0795 22.3437 11.3447 22.0312 11.5341C21.7187 11.7235 21.3854 11.7614 21.0312 11.6477C20.6771 11.553 20.3071 11.4818 19.9212 11.4341C19.5354 11.3864 19.145 11.3629 18.75 11.3636C18.5208 11.3636 18.3071 11.3686 18.1087 11.3784C17.9104 11.3883 17.7075 11.4117 17.5 11.4489C17.3958 11.4299 17.2708 11.411 17.125 11.392C17.0208 11.392 16.8908 11.3875 16.735 11.3784C16.5792 11.3693 16.4175 11.3644 16.25 11.3636H6.25C5.89583 11.3636 5.59917 11.4727 5.36 11.6909C5.12083 11.9091 5.00083 12.1788 5 12.5C4.99917 12.8212 5.11917 13.0913 5.36 13.3102C5.60083 13.5292 5.8975 13.6379 6.25 13.6364H12.6562C12.2812 13.9583 11.9429 14.3087 11.6412 14.6875C11.3396 15.0663 11.0737 15.4735 10.8437 15.9091H6.25C5.89583 15.9091 5.59917 16.0182 5.36 16.2364C5.12083 16.4545 5.00083 16.7242 5 17.0455C4.99917 17.3667 5.11917 17.6367 5.36 17.8557C5.60083 18.0746 5.8975 18.1833 6.25 18.1818H10.0937C10.0521 18.3712 10.0262 18.5561 10.0162 18.7364C10.0062 18.9167 10.0008 19.1106 10 19.3182C10 19.697 10.0208 20.0568 10.0625 20.3977C10.1042 20.7386 10.1771 21.0701 10.2812 21.392C10.3854 21.714 10.3333 22.017 10.125 22.3011C9.91666 22.5852 9.63541 22.7273 9.28125 22.7273H2.5ZM18.125 19.8864V22.1591C18.125 22.3106 18.1875 22.4432 18.3125 22.5568C18.4375 22.6705 18.5833 22.7273 18.75 22.7273C18.9167 22.7273 19.0625 22.6705 19.1875 22.5568C19.3125 22.4432 19.375 22.3106 19.375 22.1591V19.8864H21.875C22.0417 19.8864 22.1875 19.8295 22.3125 19.7159C22.4375 19.6023 22.5 19.4697 22.5 19.3182C22.5 19.1667 22.4375 19.0341 22.3125 18.9205C22.1875 18.8068 22.0417 18.75 21.875 18.75H19.375V16.4773C19.375 16.3258 19.3125 16.1932 19.1875 16.0795C19.0625 15.9659 18.9167 15.9091 18.75 15.9091C18.5833 15.9091 18.4375 15.9659 18.3125 16.0795C18.1875 16.1932 18.125 16.3258 18.125 16.4773V18.75H15.625C15.4583 18.75 15.3125 18.8068 15.1875 18.9205C15.0625 19.0341 15 19.1667 15 19.3182C15 19.4697 15.0625 19.6023 15.1875 19.7159C15.3125 19.8295 15.4583 19.8864 15.625 19.8864H18.125ZM6.25 9.09091H16.25C16.6042 9.09091 16.9012 8.98182 17.1412 8.76364C17.3812 8.54545 17.5008 8.27576 17.5 7.95454C17.4992 7.63333 17.3792 7.36364 17.14 7.14545C16.9008 6.92727 16.6042 6.81818 16.25 6.81818H6.25C5.89583 6.81818 5.59917 6.92727 5.36 7.14545C5.12083 7.36364 5.00083 7.63333 5 7.95454C4.99917 8.27576 5.11917 8.54583 5.36 8.76477C5.60083 8.98371 5.8975 9.09242 6.25 9.09091Z" fill="#067900"/>
</svg>
