<svg width="32" height="32" viewBox="0 0 32 32" fill="none" xmlns="http://www.w3.org/2000/svg">
<path d="M5.5 10.1053V16.7368M26.5 10.1053V16.7368M2 2H30V7.89474L29.0214 8.51368C28.2599 8.99466 27.3885 9.24873 26.5003 9.24873C25.6122 9.24873 24.7408 8.99466 23.9793 8.51368L23 7.89474L22.0214 8.51368C21.2599 8.99466 20.3885 9.24873 19.5003 9.24873C18.6122 9.24873 17.7408 8.99466 16.9793 8.51368L16 7.89474L15.0214 8.51368C14.2599 8.99466 13.3885 9.24873 12.5003 9.24873C11.6122 9.24873 10.7408 8.99466 9.9793 8.51368L9 7.89474L8.0207 8.51368C7.25924 8.99452 6.38796 9.24851 5.5 9.24851C4.61203 9.24851 3.74076 8.99452 2.9793 8.51368L2 7.89474V2ZM3.4 16.7368H28.6V30H3.4V16.7368Z" stroke="white" stroke-width="2.33333" stroke-linecap="round" stroke-linejoin="round"/>
</svg>
