<svg width="31" height="31" viewBox="0 0 31 31" fill="none" xmlns="http://www.w3.org/2000/svg">
<path d="M14.7422 8.9863H21.5832M14.7422 15.2084H21.5832M14.7422 21.4304H21.5832M9.25415 9.92014C9.50182 9.92014 9.73935 9.82175 9.91447 9.64662C10.0896 9.47149 10.188 9.23397 10.188 8.9863C10.188 8.73863 10.0896 8.5011 9.91447 8.32597C9.73935 8.15085 9.50182 8.05246 9.25415 8.05246C9.00648 8.05246 8.76896 8.15085 8.59383 8.32597C8.4187 8.5011 8.32031 8.73863 8.32031 8.9863C8.32031 9.23397 8.4187 9.47149 8.59383 9.64662C8.76896 9.82175 9.00648 9.92014 9.25415 9.92014ZM9.25415 16.1422C9.50182 16.1422 9.73935 16.0438 9.91447 15.8687C10.0896 15.6935 10.188 15.456 10.188 15.2084C10.188 14.9607 10.0896 14.7232 9.91447 14.548C9.73935 14.3729 9.50182 14.2745 9.25415 14.2745C9.00648 14.2745 8.76896 14.3729 8.59383 14.548C8.4187 14.7232 8.32031 14.9607 8.32031 15.2084C8.32031 15.456 8.4187 15.6935 8.59383 15.8687C8.76896 16.0438 9.00648 16.1422 9.25415 16.1422ZM9.25415 22.3642C9.50182 22.3642 9.73935 22.2659 9.91447 22.0907C10.0896 21.9156 10.188 21.6781 10.188 21.4304C10.188 21.1827 10.0896 20.9452 9.91447 20.7701C9.73935 20.595 9.50182 20.4966 9.25415 20.4966C9.00648 20.4966 8.76896 20.595 8.59383 20.7701C8.4187 20.9452 8.32031 21.1827 8.32031 21.4304C8.32031 21.6781 8.4187 21.9156 8.59383 22.0907C8.76896 22.2659 9.00648 22.3642 9.25415 22.3642Z" stroke="white" stroke-width="1.75" stroke-linecap="round" stroke-linejoin="round"/>
<path d="M20.1272 1.20834H10.2894C5.27405 1.20834 1.20831 5.27408 1.20831 10.2894V20.1273C1.20831 25.1426 5.27405 29.2083 10.2894 29.2083H20.1272C25.1426 29.2083 29.2083 25.1426 29.2083 20.1273V10.2894C29.2083 5.27408 25.1426 1.20834 20.1272 1.20834Z" stroke="white" stroke-width="1.75"/>
</svg>
