<svg width="30" height="30" viewBox="0 0 30 30" fill="none" xmlns="http://www.w3.org/2000/svg">
<path d="M26.0759 17.2703H20.211C19.4336 17.2695 18.6876 17.577 18.1366 18.1254C17.5856 18.6739 17.2746 19.4185 17.2718 20.1959V26.0608C17.2714 26.4469 17.3471 26.8292 17.4947 27.186C17.6423 27.5428 17.8588 27.867 18.1318 28.14C18.4048 28.413 18.729 28.6295 19.0858 28.7771C19.4425 28.9246 19.8249 29.0004 20.211 29H26.0759C26.8531 28.9968 27.5972 28.6856 28.1454 28.1347C28.6935 27.5837 29.0008 26.8379 29 26.0608V20.1959C29.0004 19.8118 28.925 19.4314 28.7782 19.0764C28.6314 18.7215 28.416 18.399 28.1444 18.1273C27.8728 17.8557 27.5503 17.6404 27.1954 17.4936C26.8404 17.3467 26.46 17.2714 26.0759 17.2718M9.78897 17.2703H3.92411C3.14706 17.2747 2.40334 17.5864 1.85543 18.1375C1.30753 18.6885 0.999989 19.434 1 20.211V26.0759C0.999603 26.46 1.07497 26.8404 1.22177 27.1954C1.36858 27.5503 1.58396 27.8728 1.85556 28.1444C2.12717 28.416 2.44968 28.6314 2.80463 28.7782C3.15958 28.925 3.54 29.0004 3.92411 29H9.78897C10.5661 29.0008 11.3119 28.6935 11.8629 28.1454C12.4138 27.5972 12.725 26.8531 12.7282 26.0759V20.211C12.7286 19.8249 12.6529 19.4425 12.5053 19.0858C12.3577 18.729 12.1412 18.4048 11.8682 18.1318C11.5952 17.8588 11.271 17.6423 10.9142 17.4947C10.5575 17.3471 10.1751 17.2714 9.78897 17.2718M9.78897 1H3.92411C3.54 0.999603 3.15958 1.07497 2.80463 1.22177C2.44968 1.36858 2.12717 1.58396 1.85556 1.85556C1.58396 2.12717 1.36858 2.44968 1.22177 2.80463C1.07497 3.15958 0.999603 3.54 1 3.92411V9.78897C0.999194 10.5661 1.30653 11.3119 1.85465 11.8629C2.40276 12.4138 3.14695 12.725 3.92411 12.7282H9.78897C10.1751 12.7286 10.5575 12.6529 10.9142 12.5053C11.271 12.3577 11.5952 12.1412 11.8682 11.8682C12.1412 11.5952 12.3577 11.271 12.5053 10.9142C12.6529 10.5575 12.7286 10.1751 12.7282 9.78897V3.92411C12.725 3.14695 12.4138 2.40276 11.8629 1.85465C11.3119 1.30653 10.5661 0.999194 9.78897 1ZM26.0759 1H20.211C19.4339 0.999194 18.6881 1.30653 18.1371 1.85465C17.5862 2.40276 17.275 3.14695 17.2718 3.92411V9.78897C17.2722 10.5684 17.582 11.3158 18.1331 11.8669C18.6842 12.418 19.4316 12.7278 20.211 12.7282H26.0759C26.8531 12.725 27.5972 12.4138 28.1454 11.8629C28.6935 11.3119 29.0008 10.5661 29 9.78897V3.92411C29.0004 3.54 28.925 3.15958 28.7782 2.80463C28.6314 2.44968 28.416 2.12717 28.1444 1.85556C27.8728 1.58396 27.5503 1.36858 27.1954 1.22177C26.8404 1.07497 26.46 0.999603 26.0759 1Z" stroke="white" stroke-width="1.5" stroke-linecap="round" stroke-linejoin="round"/>
</svg>
