<svg width="23" height="26" viewBox="0 0 23 26" fill="none" xmlns="http://www.w3.org/2000/svg">
<path d="M2.125 22.949C2.125 23.5579 2.37193 24.1419 2.81147 24.5725C3.25101 25.003 3.84715 25.2449 4.46875 25.2449H18.5312C19.1529 25.2449 19.749 25.003 20.1885 24.5725C20.6281 24.1419 20.875 23.5579 20.875 22.949V6.87758H2.125V22.949ZM15.4062 10.7041C15.4062 10.5011 15.4886 10.3065 15.6351 10.163C15.7816 10.0194 15.9803 9.93881 16.1875 9.93881C16.3947 9.93881 16.5934 10.0194 16.7399 10.163C16.8864 10.3065 16.9688 10.5011 16.9688 10.7041V21.4184C16.9688 21.6214 16.8864 21.816 16.7399 21.9596C16.5934 22.1031 16.3947 22.1837 16.1875 22.1837C15.9803 22.1837 15.7816 22.1031 15.6351 21.9596C15.4886 21.816 15.4062 21.6214 15.4062 21.4184V10.7041ZM10.7188 10.7041C10.7188 10.5011 10.8011 10.3065 10.9476 10.163C11.0941 10.0194 11.2928 9.93881 11.5 9.93881C11.7072 9.93881 11.9059 10.0194 12.0524 10.163C12.1989 10.3065 12.2812 10.5011 12.2812 10.7041V21.4184C12.2812 21.6214 12.1989 21.816 12.0524 21.9596C11.9059 22.1031 11.7072 22.1837 11.5 22.1837C11.2928 22.1837 11.0941 22.1031 10.9476 21.9596C10.8011 21.816 10.7188 21.6214 10.7188 21.4184V10.7041ZM6.03125 10.7041C6.03125 10.5011 6.11356 10.3065 6.26007 10.163C6.40659 10.0194 6.6053 9.93881 6.8125 9.93881C7.0197 9.93881 7.21841 10.0194 7.36493 10.163C7.51144 10.3065 7.59375 10.5011 7.59375 10.7041V21.4184C7.59375 21.6214 7.51144 21.816 7.36493 21.9596C7.21841 22.1031 7.0197 22.1837 6.8125 22.1837C6.6053 22.1837 6.40659 22.1031 6.26007 21.9596C6.11356 21.816 6.03125 21.6214 6.03125 21.4184V10.7041ZM21.6562 2.28575H15.7969L15.3379 1.3913C15.2407 1.20007 15.0909 1.03922 14.9054 0.926831C14.72 0.814444 14.5062 0.754982 14.2881 0.755135H8.70703C8.48944 0.754316 8.27602 0.813556 8.09121 0.926068C7.90641 1.03858 7.75769 1.19981 7.66211 1.3913L7.20312 2.28575H1.34375C1.13655 2.28575 0.937836 2.36638 0.791323 2.5099C0.64481 2.65342 0.5625 2.84808 0.5625 3.05105L0.5625 4.58167C0.5625 4.78464 0.64481 4.9793 0.791323 5.12282C0.937836 5.26634 1.13655 5.34697 1.34375 5.34697H21.6562C21.8635 5.34697 22.0622 5.26634 22.2087 5.12282C22.3552 4.9793 22.4375 4.78464 22.4375 4.58167V3.05105C22.4375 2.84808 22.3552 2.65342 22.2087 2.5099C22.0622 2.36638 21.8635 2.28575 21.6562 2.28575Z" fill="#FF0D0D"/>
</svg>
