<svg width="24" height="22" viewBox="0 0 24 22" fill="none" xmlns="http://www.w3.org/2000/svg">
<path d="M16.474 3.65304L20.3889 7.48807C20.5538 7.64963 20.5538 7.91324 20.3889 8.0748L10.9097 17.3605L6.88194 17.7984C6.34375 17.858 5.88802 17.4115 5.94878 16.8843L6.39583 12.9387L15.875 3.65304C16.0399 3.49147 16.309 3.49147 16.474 3.65304ZM23.5052 2.6794L21.3872 0.604567C20.7274 -0.0416916 19.6554 -0.0416916 18.9913 0.604567L17.4549 2.10967C17.2899 2.27123 17.2899 2.53484 17.4549 2.6964L21.3698 6.53144C21.5347 6.693 21.8038 6.693 21.9688 6.53144L23.5052 5.02634C24.1649 4.37582 24.1649 3.32565 23.5052 2.6794ZM15.6667 14.835V19.1632H1.77778V5.5578H11.7517C11.8906 5.5578 12.0208 5.50253 12.1207 5.40899L13.8568 3.70831C14.1866 3.38518 13.9523 2.83671 13.4878 2.83671H1.08333C-0.0668403 2.83671 -1 3.75083 -1 4.87753V19.8435C-1 20.9702 -0.0668403 21.8843 1.08333 21.8843H16.3611C17.5113 21.8843 18.4444 20.9702 18.4444 19.8435V13.1343C18.4444 12.6794 17.8845 12.4541 17.5547 12.7729L15.8186 14.4736C15.7231 14.5714 15.6667 14.699 15.6667 14.835Z" fill="#128807"/>
</svg>
