<svg width="29" height="29" viewBox="0 0 29 29" fill="none" xmlns="http://www.w3.org/2000/svg">
<path d="M18.3889 22.7333C17.3 22.7333 16.3796 22.395 15.6278 21.7183C14.8759 21.0417 14.5 20.2133 14.5 19.2333C14.5 18.2533 14.8759 17.425 15.6278 16.7483C16.3796 16.0717 17.3 15.7333 18.3889 15.7333C19.4778 15.7333 20.3981 16.0717 21.15 16.7483C21.9018 17.425 22.2778 18.2533 22.2778 19.2333C22.2778 20.2133 21.9018 21.0417 21.15 21.7183C20.3981 22.395 19.4778 22.7333 18.3889 22.7333ZM3.61111 28.3333C2.75556 28.3333 2.02341 28.0594 1.41467 27.5115C0.805926 26.9637 0.501037 26.3043 0.5 25.5333V5.93335C0.5 5.16335 0.804889 4.50441 1.41467 3.95655C2.02444 3.40868 2.75659 3.13428 3.61111 3.13335H5.16667V1.73335C5.16667 1.33668 5.316 1.00441 5.61467 0.736548C5.91333 0.468682 6.28252 0.334282 6.72222 0.333348C7.16192 0.332415 7.53163 0.466815 7.83133 0.736548C8.13104 1.00628 8.27985 1.33855 8.27778 1.73335V3.13335H20.7222V1.73335C20.7222 1.33668 20.8716 1.00441 21.1702 0.736548C21.4689 0.468682 21.8381 0.334282 22.2778 0.333348C22.7175 0.332415 23.0872 0.466815 23.3869 0.736548C23.6866 1.00628 23.8354 1.33855 23.8333 1.73335V3.13335H25.3889C26.2444 3.13335 26.9771 3.40775 27.5869 3.95655C28.1967 4.50535 28.501 5.16428 28.5 5.93335V25.5333C28.5 26.3033 28.1956 26.9627 27.5869 27.5115C26.9781 28.0603 26.2455 28.3343 25.3889 28.3333H3.61111ZM3.61111 25.5333H25.3889V11.5333H3.61111V25.5333ZM3.61111 8.73335H25.3889V5.93335H3.61111V8.73335Z" fill="white"/>
</svg>
