<svg width="28" height="23" viewBox="0 0 28 23" fill="none" xmlns="http://www.w3.org/2000/svg">
<path d="M8.16667 0C5.6 0 3.5 2.5875 3.5 5.75C3.5 8.9125 5.6 11.5 8.16667 11.5C10.7333 11.5 12.8333 8.9125 12.8333 5.75C12.8333 2.5875 10.7333 0 8.16667 0ZM8.16667 8.625C6.88333 8.625 5.83333 7.33125 5.83333 5.75C5.83333 4.16875 6.88333 2.875 8.16667 2.875C9.45 2.875 10.5 4.16875 10.5 5.75C10.5 7.33125 9.45 8.625 8.16667 8.625ZM8.16667 14.375C3.61667 14.375 0 16.9625 0 20.125V23H12.8333V20.125H2.33333C2.33333 19.2625 4.43333 17.25 8.16667 17.25C10.2667 17.25 11.9 17.9688 12.8333 18.6875V15.525C11.55 14.8063 9.91667 14.375 8.16667 14.375ZM25.6667 0H17.5C16.2167 0 15.1667 1.29375 15.1667 2.875V20.125C15.1667 21.7063 16.2167 23 17.5 23H25.6667C26.95 23 28 21.7063 28 20.125V2.875C28 1.29375 26.95 0 25.6667 0ZM18.6667 20.125H17.5V2.875H18.6667V20.125ZM25.6667 20.125H21V2.875H25.6667V20.125Z" fill="white"/>
</svg>
