<svg width="25" height="17" viewBox="0 0 25 17" fill="none" xmlns="http://www.w3.org/2000/svg">
<path d="M12.5 5.1C11.5959 5.1 10.7287 5.45821 10.0894 6.09584C9.45008 6.73346 9.09091 7.59827 9.09091 8.5C9.09091 9.40174 9.45008 10.2665 10.0894 10.9042C10.7287 11.5418 11.5959 11.9 12.5 11.9C13.4041 11.9 14.2713 11.5418 14.9106 10.9042C15.5499 10.2665 15.9091 9.40174 15.9091 8.5C15.9091 7.59827 15.5499 6.73346 14.9106 6.09584C14.2713 5.45821 13.4041 5.1 12.5 5.1ZM12.5 14.1667C10.9931 14.1667 9.5479 13.5696 8.48235 12.5069C7.4168 11.4442 6.81818 10.0029 6.81818 8.5C6.81818 6.99711 7.4168 5.55577 8.48235 4.49306C9.5479 3.43036 10.9931 2.83334 12.5 2.83334C14.0069 2.83334 15.4521 3.43036 16.5177 4.49306C17.5832 5.55577 18.1818 6.99711 18.1818 8.5C18.1818 10.0029 17.5832 11.4442 16.5177 12.5069C15.4521 13.5696 14.0069 14.1667 12.5 14.1667ZM12.5 1.90735e-06C6.81818 1.90735e-06 1.96591 3.52467 0 8.5C1.96591 13.4753 6.81818 17 12.5 17C18.1818 17 23.0341 13.4753 25 8.5C23.0341 3.52467 18.1818 1.90735e-06 12.5 1.90735e-06Z" fill="#025680"/>
</svg>
