<?xml version="1.0" encoding="utf-8"?>
<!-- Generator: Adobe Illustrator 26.0.1, SVG Export Plug-In . SVG Version: 6.00 Build 0)  -->
<svg version="1.1" id="Layer_1" xmlns="http://www.w3.org/2000/svg" xmlns:xlink="http://www.w3.org/1999/xlink" x="0px" y="0px"
	 viewBox="0 0 32 32" style="enable-background:new 0 0 32 32;" xml:space="preserve">
<style type="text/css">
	.st0{fill-rule:evenodd;clip-rule:evenodd;fill:#F3704C;}
	.st1{fill-rule:evenodd;clip-rule:evenodd;fill:#FFFFFF;}
	.st2{fill-rule:evenodd;clip-rule:evenodd;fill:#FCBA25;}
	.st3{fill:#FCBA25;}
	.st4{fill-rule:evenodd;clip-rule:evenodd;fill:#F26B41;}
	.st5{fill:none;}
</style>
<g>
	<path class="st0" d="M1.9,22C-1.4,14.3,2.2,5.3,9.9,2C17.7-1.4,26.7,2.1,30,9.9S29.9,26.6,22.2,30C22.1,30,22,30,22,30.1
		C14.2,33.4,5.3,29.8,1.9,22"/>
	<path class="st1" d="M13.6,2.1c3.9-0.7,7.7,0.3,10.9,3.2c2.7,2.4,4.9,6.4,2.5,6.2c-3.1-0.2,0.3,3.3,1.6,7.1c1.7,4.6-3.4,9.1-7,10.5
		c-1,0.4-1.9,0.7-2.9,0.9c-0.1,0-0.2,0-0.3,0.1c-3.9,0.7-7.7-0.4-10.9-3.2c-2.7-2.4-4.7-6.3-2.2-6.1c3.1,0.2-0.5-3.4-1.9-7.2
		C1.7,8.9,6.8,4.4,10.4,3c1-0.4,1.9-0.7,2.9-0.9C13.4,2.1,13.5,2.1,13.6,2.1"/>
	<path class="st2" d="M21.3,11.7v14H18c1.6-0.7,2.7-2.3,2.7-4.1c0-1.6,0.3-2.9-0.8-4.4c-0.6-0.8-1.4-1.3-2.3-1.6v-3.8H21.3z"/>
	<rect x="17.6" y="4.8" class="st3" width="3.7" height="3.2"/>
	<path class="st4" d="M6.7,15.1L6.7,15.1c0.6,2.1,2.2,2.9,4.1,3.3h4.4c0.7,0,1.4,0.5,1.4,1.3v1.4c0,0.7-0.6,1.3-1.4,1.3H5
		c0.3,1,1,2.1,2.1,3.3h9.1c2.3,0,4.1-1.9,4.1-4.2c0-1.5,0.3-2.8-0.7-4.2c-0.8-1.1-2.2-1.6-3.5-1.9h-4.4c-0.7,0-1.4-0.5-1.4-1.3v-1.4
		c0-0.7,0.6-1.3,1.4-1.3h9.6V8.2H10.8c-2.3,0-4.1,1.9-4.1,4.2L6.7,15.1z"/>
	<rect x="21.5" y="8.2" class="st3" width="3.7" height="3.2"/>
	<path class="st5" d="M13.6,2.1c-0.1,0-0.2,0-0.3,0.1c-1,0.2-1.9,0.5-2.9,0.9c-3.6,1.4-8.7,5.9-7,10.5c1.4,3.7,4.9,7.4,1.9,7.2
		c-2.5-0.2-0.5,3.7,2.2,6.1c3.2,2.8,7,3.9,10.9,3.2c0.1,0,0.2,0,0.3-0.1c1-0.2,1.9-0.5,2.9-0.9c3.6-1.4,8.7-5.9,7-10.5
		c-1.3-3.7-4.7-7.3-1.6-7.1c2.5,0.2,0.2-3.8-2.5-6.2C21.9,3,19,1.9,16,1.9C15.2,1.9,14.4,1.9,13.6,2.1"/>
</g>
</svg>
