<svg width="24" height="24" viewBox="0 0 24 24" fill="none" xmlns="http://www.w3.org/2000/svg">
<path d="M0 9H24V14.25H0V9Z" fill="#E6E7E8"/>
<path d="M20.25 3.375H3.75C1.26488 3.375 0 5.22188 0 7.5V9H24V7.5C24 5.22188 22.7351 3.375 20.25 3.375Z" fill="#FF9933"/>
<path d="M0 15.75C0 18.0281 1.26488 19.875 3.75 19.875H20.25C22.7351 19.875 24 18.0281 24 15.75V14.25H0V15.75Z" fill="#128807"/>
<path fill-rule="evenodd" clip-rule="evenodd" d="M12.1163 9.21863C12.5955 9.21863 13.0638 9.36076 13.4622 9.62703C13.8605 9.8933 14.1709 10.2717 14.3541 10.7145C14.5373 11.1572 14.585 11.6443 14.4913 12.1142C14.3975 12.5841 14.1665 13.0156 13.8274 13.3541C13.4884 13.6927 13.0565 13.923 12.5865 14.0161C12.1165 14.1091 11.6294 14.0606 11.187 13.8767C10.7445 13.6928 10.3666 13.3818 10.1009 12.9831C9.83524 12.5844 9.69384 12.1158 9.69458 11.6366C9.69568 10.995 9.95129 10.3801 10.4053 9.92673C10.8594 9.47339 11.4747 9.21873 12.1163 9.21863ZM10.502 10.2668C10.5436 10.314 10.5511 10.3646 10.5233 10.407C10.5116 10.4265 10.4934 10.4414 10.472 10.449C10.4555 10.4551 10.4378 10.4572 10.4203 10.4549C10.4029 10.4527 10.3862 10.4463 10.3718 10.4363C10.3066 10.5296 10.2493 10.6282 10.2005 10.731C10.2571 10.7681 10.2758 10.8146 10.2571 10.866C10.2471 10.8922 10.2272 10.9134 10.2018 10.9251C10.1764 10.9369 10.1474 10.9383 10.121 10.929C10.094 10.983 10.0343 11.211 10.0336 11.259C10.0584 11.2638 10.0807 11.2772 10.0966 11.2969C10.1133 11.3164 10.1219 11.3417 10.1206 11.3674C10.1135 11.4379 10.07 11.4679 10.0036 11.4705C9.99308 11.5384 9.99421 11.7656 10.0047 11.8103C10.0752 11.8178 10.1123 11.8485 10.1183 11.9021C10.1266 11.9599 10.0988 11.9974 10.0313 12.0236C10.0516 12.135 10.0805 12.2445 10.1183 12.3518C10.1448 12.3438 10.1731 12.3447 10.199 12.3544C10.2241 12.3653 10.244 12.384 10.2545 12.4099C10.2638 12.4301 10.2657 12.4511 10.2608 12.4733C10.2573 12.4897 10.2501 12.5051 10.2396 12.5182C10.2291 12.5314 10.2157 12.5419 10.2005 12.549C10.2507 12.6533 10.3062 12.7515 10.3718 12.8438C10.4303 12.8149 10.4813 12.8216 10.5158 12.8629C10.531 12.8798 10.5397 12.9016 10.5402 12.9244C10.5414 12.9412 10.5384 12.958 10.5316 12.9734C10.5248 12.9889 10.5144 13.0024 10.5012 13.0129C10.5762 13.1006 10.6561 13.1809 10.7431 13.2548C10.7922 13.2116 10.8432 13.2049 10.8871 13.2356C10.907 13.2495 10.9208 13.2679 10.9272 13.2904C10.9318 13.3063 10.9327 13.3231 10.93 13.3394C10.9273 13.3558 10.9209 13.3713 10.9115 13.3849C11.0063 13.4501 11.1042 13.5064 11.2066 13.5551C11.2463 13.4993 11.2917 13.4805 11.3408 13.4993C11.3622 13.5069 11.3808 13.5209 11.3941 13.5394C11.4128 13.5694 11.4155 13.6024 11.4046 13.6376C11.5126 13.6759 11.6213 13.7051 11.7338 13.725C11.756 13.6616 11.7942 13.632 11.8452 13.6358C11.8688 13.6376 11.8902 13.6448 11.909 13.6609C11.9352 13.6849 11.9476 13.7153 11.9453 13.7528C12.0608 13.761 12.1737 13.7618 12.2858 13.7528C12.2941 13.6804 12.323 13.644 12.3811 13.6358C12.4032 13.6327 12.4256 13.6372 12.4448 13.6485C12.4589 13.6564 12.471 13.6674 12.4802 13.6807C12.4894 13.6939 12.4955 13.7091 12.4981 13.725C12.6113 13.704 12.7212 13.6751 12.8273 13.6373C12.818 13.5664 12.8352 13.524 12.8828 13.5019C12.9002 13.4944 12.9192 13.4915 12.938 13.4933C12.9575 13.4948 12.9751 13.5008 12.9893 13.5135C13.0032 13.5251 13.0148 13.5394 13.0283 13.554C13.1306 13.5058 13.2286 13.4492 13.3216 13.3849C13.2833 13.3249 13.3058 13.2675 13.337 13.242C13.3478 13.2327 13.3604 13.2256 13.374 13.2213C13.3876 13.2169 13.402 13.2153 13.4162 13.2165C13.4305 13.2177 13.4443 13.2217 13.457 13.2284C13.4696 13.235 13.4808 13.2441 13.49 13.2551C13.5766 13.1809 13.658 13.1003 13.7307 13.0136C13.6883 12.9653 13.6801 12.9143 13.7112 12.8704C13.7238 12.8507 13.7431 12.8363 13.7656 12.8299C13.7816 12.8248 13.7985 12.8235 13.8151 12.826C13.8317 12.8286 13.8475 12.8349 13.8612 12.8445C13.9268 12.75 13.9838 12.6521 14.0326 12.5494C13.9778 12.5126 13.958 12.4695 13.9745 12.4204C13.9804 12.3985 13.9937 12.3794 14.012 12.366C14.0265 12.3558 14.0432 12.3492 14.0608 12.3466C14.0784 12.344 14.0963 12.3455 14.1132 12.351C14.1376 12.2981 14.1983 12.0754 14.2017 12.0214C14.1758 12.0167 14.1524 12.0028 14.1357 11.9824C14.127 11.9723 14.1204 11.9604 14.1165 11.9476C14.1126 11.9349 14.1113 11.9214 14.1128 11.9081C14.1143 11.8844 14.1241 11.8619 14.1406 11.8448C14.1519 11.8329 14.1657 11.8237 14.181 11.8178C14.1963 11.812 14.2127 11.8096 14.2291 11.811C14.2385 11.6976 14.2385 11.5836 14.2291 11.4701C14.1575 11.463 14.1233 11.4353 14.114 11.3786C14.1097 11.3572 14.1129 11.335 14.123 11.3156C14.1307 11.3006 14.1418 11.2877 14.1554 11.2777C14.169 11.2677 14.1847 11.2611 14.2013 11.2583C14.1816 11.1462 14.1524 11.0361 14.114 10.929C14.0446 10.9406 14.0018 10.9219 13.979 10.8739C13.973 10.861 13.9697 10.8472 13.9692 10.833C13.9687 10.8189 13.971 10.8048 13.976 10.7916C13.981 10.7783 13.9885 10.7662 13.9983 10.756C14.008 10.7457 14.0196 10.7375 14.0326 10.7318C13.984 10.6287 13.9267 10.5299 13.8612 10.4366C13.8008 10.4655 13.7517 10.4588 13.7172 10.4175C13.7019 10.4001 13.6934 10.3777 13.6932 10.3545C13.6925 10.338 13.6957 10.3216 13.7024 10.3066C13.7092 10.2915 13.7194 10.2783 13.7322 10.2679C13.6581 10.1812 13.5775 10.1003 13.4911 10.026C13.4393 10.0703 13.3891 10.0759 13.3463 10.0451C13.3269 10.0322 13.3127 10.0128 13.3062 9.99038C13.3015 9.97464 13.3005 9.95805 13.3033 9.94187C13.306 9.92568 13.3124 9.91034 13.322 9.897C13.2285 9.83184 13.1298 9.77452 13.0268 9.72563C12.9882 9.78113 12.9447 9.7995 12.8956 9.783C12.8738 9.77604 12.8548 9.76239 12.8412 9.744C12.8313 9.72937 12.825 9.71261 12.8228 9.69509C12.8206 9.67756 12.8225 9.65976 12.8285 9.64313C12.7215 9.60444 12.6113 9.5752 12.4992 9.55575C12.4778 9.6165 12.4392 9.648 12.3893 9.645C12.366 9.64425 12.3436 9.63582 12.3256 9.621C12.3122 9.60973 12.3018 9.59537 12.2952 9.57917C12.2886 9.56297 12.286 9.54541 12.2877 9.528C12.1744 9.51837 12.0605 9.5185 11.9472 9.52838C11.9393 9.59588 11.9101 9.6345 11.8602 9.64275C11.8378 9.64754 11.8144 9.64463 11.7938 9.6345C11.7785 9.62691 11.7652 9.61578 11.755 9.60202C11.7448 9.58826 11.7381 9.57227 11.7353 9.55538C11.6233 9.57577 11.513 9.60524 11.4057 9.6435C11.4177 9.70988 11.399 9.75338 11.3532 9.777C11.3333 9.78713 11.3123 9.79125 11.2891 9.78713C11.2716 9.78475 11.2551 9.77786 11.2411 9.76714C11.227 9.75642 11.2161 9.74225 11.2092 9.726C11.1451 9.75 10.9411 9.86813 10.9141 9.89775C10.9418 9.95325 10.9355 10.0024 10.8972 10.0376C10.8864 10.0472 10.8738 10.0545 10.8601 10.059C10.8464 10.0636 10.832 10.0654 10.8176 10.0643C10.8032 10.0631 10.7892 10.0591 10.7764 10.0525C10.7636 10.0459 10.7523 10.0367 10.7431 10.0256C10.6566 10.0996 10.5759 10.1802 10.502 10.2668Z" fill="#010088"/>
<path fill-rule="evenodd" clip-rule="evenodd" d="M13.1552 13.4351C13.1507 13.4303 13.1462 13.4269 13.1428 13.4216C12.9248 13.0884 12.7062 12.7555 12.487 12.423C12.4821 12.4136 12.4765 12.4043 12.472 12.3938C12.421 12.2749 12.3711 12.156 12.319 12.0375C12.3172 12.0314 12.3148 12.0255 12.3118 12.0199C12.2908 12.0278 12.2717 12.0368 12.2492 12.0454L12.2567 12.0645C12.3036 12.1796 12.3486 12.2951 12.3962 12.4103C12.409 12.441 12.4142 12.4733 12.421 12.5055C12.4577 12.6776 12.4922 12.8505 12.5293 13.023L12.6561 13.6391C12.6567 13.6406 12.6569 13.6422 12.6567 13.6438C12.6565 13.6454 12.6559 13.6469 12.655 13.6481L12.6497 13.635C12.547 13.3204 12.4416 13.0061 12.3385 12.6915C12.3178 12.63 12.2995 12.5693 12.277 12.5078C12.2665 12.477 12.2631 12.4455 12.2582 12.4136C12.2451 12.3244 12.2338 12.2344 12.2192 12.1451C12.2173 12.1238 12.214 12.1028 12.211 12.0821C12.21 12.0736 12.2087 12.0651 12.2068 12.0566C12.1843 12.0589 12.1637 12.0619 12.1412 12.0645C12.1412 12.0735 12.142 12.0829 12.1427 12.0923C12.1558 12.2021 12.1671 12.3124 12.1828 12.4219C12.1911 12.4819 12.187 12.5408 12.1836 12.6008C12.1813 12.6514 12.178 12.702 12.1757 12.753C12.169 12.8558 12.1637 12.9581 12.1566 13.0605L12.1453 13.272C12.139 13.392 12.1315 13.5116 12.1251 13.6309C12.1221 13.6646 12.1213 13.6991 12.118 13.7321L12.109 13.6185L12.0973 13.3725L12.0838 13.1531C12.0801 13.0781 12.0752 13.0035 12.0711 12.9285C12.0677 12.8794 12.0658 12.8303 12.0628 12.7819C12.0587 12.7043 12.0538 12.6266 12.0501 12.5498C12.0464 12.5088 12.0474 12.4675 12.0531 12.4268C12.061 12.3713 12.067 12.3146 12.0737 12.2584C12.0812 12.2029 12.0876 12.147 12.0943 12.0923C12.0951 12.0836 12.0951 12.0746 12.0962 12.0645L12.0306 12.0559C12.0287 12.0709 12.0253 12.0855 12.0227 12.1005C12.0071 12.2151 11.9911 12.3296 11.9747 12.444C11.9702 12.4886 11.9526 12.5299 11.9376 12.5715C11.8221 12.9233 11.7062 13.2754 11.5892 13.6268C11.5866 13.6331 11.5855 13.6391 11.5806 13.6451C11.5806 13.6406 11.5806 13.6373 11.5825 13.6331C11.6308 13.3961 11.6796 13.1588 11.7298 12.9218C11.7621 12.7643 11.7955 12.6071 11.8273 12.45L11.8363 12.4241C11.8847 12.3053 11.9312 12.1853 11.9807 12.0664C11.9824 12.0594 11.9849 12.0526 11.9882 12.0461C11.9675 12.0373 11.9468 12.0287 11.926 12.0203C11.9233 12.027 11.9192 12.0326 11.917 12.0394C11.8652 12.1586 11.8146 12.2783 11.7628 12.3975C11.7596 12.4065 11.7556 12.4151 11.7508 12.4234C11.5296 12.7586 11.3089 13.0942 11.089 13.4303C11.0859 13.4353 11.082 13.4398 11.0773 13.4434C11.0792 13.4374 11.0826 13.4325 11.0848 13.4273L11.6271 12.3521C11.6317 12.3424 11.6375 12.3332 11.6443 12.3248L11.8761 12.0139C11.881 12.0086 11.884 12.0038 11.8885 11.9981C11.8693 11.9843 11.854 11.9715 11.8348 11.9569C11.8307 11.9618 11.827 11.9659 11.8236 11.9708C11.7426 12.0724 11.6627 12.1748 11.5836 12.276C11.5746 12.2854 11.5663 12.2951 11.5562 12.3038C11.2607 12.5681 10.9652 12.831 10.6686 13.0958C10.6626 13.1006 10.6566 13.1059 10.6491 13.1093C10.6525 13.1059 10.6543 13.1018 10.6566 13.0991C10.9 12.8273 11.1415 12.5558 11.3837 12.2839C11.3976 12.2689 11.4115 12.2539 11.4246 12.2378C11.4523 12.2055 11.4835 12.177 11.5172 12.1515L11.7865 11.9396C11.7925 11.9351 11.797 11.9303 11.8037 11.9258C11.7904 11.9078 11.7766 11.8902 11.7625 11.8729C11.7565 11.8766 11.7516 11.8804 11.746 11.8845C11.6428 11.9618 11.5393 12.0383 11.4362 12.1159C11.4247 12.1246 11.4124 12.1323 11.3995 12.1388C11.0473 12.3165 10.6933 12.4943 10.3405 12.672C10.3337 12.675 10.3273 12.6788 10.3195 12.6788L10.3337 12.6686L10.9922 12.2374C11.107 12.162 11.2221 12.0866 11.3361 12.0109C11.3458 12.0053 11.356 12.0004 11.3646 11.9959C11.4842 11.9453 11.6035 11.8943 11.722 11.8433C11.7276 11.841 11.7332 11.8388 11.74 11.8354L11.7148 11.7735C11.7077 11.7754 11.7032 11.7773 11.6976 11.7791C11.5761 11.8275 11.4557 11.8766 11.3335 11.9246C11.3083 11.934 11.281 11.9385 11.2543 11.9441L10.435 12.1144C10.3318 12.1365 10.2268 12.1583 10.1233 12.1796C10.1192 12.1806 10.1148 12.1801 10.111 12.1781C10.1395 12.1691 10.168 12.159 10.1961 12.1496C10.5501 12.033 10.9037 11.9168 11.2566 11.7994C11.2843 11.79 11.314 11.7874 11.3421 11.7829C11.4561 11.7671 11.5697 11.7506 11.6826 11.7345C11.6895 11.7333 11.6964 11.7318 11.7032 11.73C11.701 11.7083 11.6976 11.6865 11.6957 11.664L11.641 11.67L11.4145 11.6974C11.3721 11.703 11.3301 11.7075 11.2885 11.7128C11.2783 11.7139 11.2686 11.7143 11.2588 11.7139L11.0203 11.7L10.8793 11.6921L10.6363 11.6779L10.282 11.6584C10.1965 11.6539 10.1132 11.6483 10.0281 11.6423C10.0416 11.6411 10.0566 11.6389 10.0712 11.6389L10.3618 11.6224L10.7458 11.6006L11.0638 11.5826L11.2633 11.5706C11.2712 11.5703 11.2806 11.5714 11.2885 11.5721L11.5172 11.5995L11.6792 11.619H11.6957C11.6976 11.5976 11.701 11.5774 11.7032 11.5541C11.6893 11.5511 11.6736 11.5489 11.6597 11.5463C11.5596 11.5324 11.4602 11.5178 11.3601 11.5031C11.3393 11.5008 11.3185 11.498 11.2978 11.4949C11.2864 11.4933 11.2751 11.4907 11.2641 11.487C10.966 11.3891 10.6697 11.2905 10.372 11.1926C10.2891 11.1655 10.2063 11.138 10.1237 11.1101C10.1166 11.1082 10.1098 11.1051 10.1038 11.1008L10.156 11.1113L10.7923 11.2436C10.9626 11.2793 11.1355 11.3145 11.3057 11.3505C11.316 11.3528 11.326 11.3559 11.3357 11.3599C11.4557 11.4071 11.5746 11.4559 11.6957 11.5039L11.7137 11.511C11.722 11.4904 11.731 11.4705 11.74 11.4491C11.7338 11.4455 11.7274 11.4424 11.7208 11.4398C11.6016 11.3895 11.4827 11.3381 11.3638 11.2868C11.3545 11.2828 11.3455 11.2782 11.3368 11.2729C11.0005 11.0528 10.6656 10.8315 10.3288 10.611C10.3244 10.6086 10.3208 10.6047 10.3187 10.6001L10.3322 10.6076C10.6675 10.7764 11.0031 10.9451 11.3391 11.1135C11.3946 11.1413 11.4486 11.1746 11.4981 11.2125C11.5798 11.2759 11.6631 11.3366 11.7463 11.3989C11.752 11.403 11.7568 11.4068 11.7628 11.4105L11.8041 11.3584L11.7895 11.3456L11.4846 11.106C11.4741 11.0978 11.4658 11.0891 11.4568 11.0801C11.1913 10.7828 10.9255 10.485 10.6607 10.1876C10.6569 10.1846 10.6539 10.1806 10.6521 10.176C10.66 10.1768 10.663 10.182 10.6663 10.1854C10.8272 10.3279 10.9866 10.4704 11.1463 10.6129L11.5596 10.9811C11.5671 10.9879 11.5742 10.9961 11.581 11.0036L11.8176 11.3044C11.8236 11.3111 11.8281 11.3183 11.8348 11.3273L11.8892 11.2856C11.8858 11.2804 11.8813 11.2763 11.8787 11.2714C11.8015 11.1683 11.7246 11.0648 11.6466 10.962C11.6385 10.9499 11.6312 10.9374 11.6245 10.9245C11.4445 10.5701 11.266 10.2143 11.0871 9.85951C11.0837 9.85276 11.0803 9.84751 11.0796 9.84039C11.083 9.84414 11.0863 9.84751 11.0886 9.85089L11.4718 10.4366L11.743 10.8491C11.7523 10.8649 11.7628 10.8814 11.7688 10.8986C11.8195 11.0141 11.8682 11.13 11.9173 11.2455C11.9207 11.2508 11.923 11.2564 11.9263 11.2631L11.9886 11.2373L11.9818 11.2215C11.935 11.1045 11.8892 10.9875 11.8416 10.8713C11.8285 10.8416 11.8236 10.8109 11.8172 10.7801C11.7763 10.5848 11.737 10.389 11.6961 10.1933C11.656 10.005 11.6177 9.81826 11.5783 9.62926C11.5776 9.62814 11.5783 9.62664 11.5798 9.62289L11.6128 9.72301C11.7306 10.0766 11.8472 10.431 11.9627 10.7854C11.9725 10.8131 11.9758 10.8435 11.98 10.8724C11.9938 10.9706 12.0077 11.0696 12.0235 11.1686C12.0261 11.1874 12.0272 11.2061 12.031 11.2268L12.0962 11.2185V11.1938C12.0868 11.1154 12.0767 11.0366 12.0677 10.9586C12.0621 10.9129 12.058 10.8683 12.0516 10.8236C12.0478 10.7936 12.0478 10.7633 12.0516 10.7333C12.0542 10.6823 12.058 10.6316 12.0602 10.581L12.0786 10.2754C12.082 10.2206 12.0831 10.1651 12.0865 10.1104C12.0913 10.0391 12.0951 9.96676 12.0992 9.89514C12.1026 9.84264 12.1052 9.78976 12.1075 9.73764C12.1105 9.67576 12.1153 9.61426 12.1206 9.55276C12.1221 9.56964 12.1228 9.58689 12.1236 9.60489C12.1288 9.68026 12.1326 9.75564 12.1371 9.83139L12.1566 10.1749L12.1682 10.3676C12.1742 10.479 12.1795 10.5908 12.1858 10.7021C12.1877 10.719 12.1885 10.7348 12.1896 10.7513C12.1945 10.7948 12.1858 10.8379 12.1821 10.881L12.1581 11.0775C12.1543 11.1146 12.1487 11.1518 12.1442 11.1893C12.1435 11.1983 12.1435 11.208 12.1408 11.2189C12.1641 11.2223 12.1851 11.2245 12.2083 11.2275C12.2117 11.2114 12.2132 11.1964 12.2158 11.1806C12.2338 11.0588 12.2511 10.9369 12.2683 10.8143C12.2698 10.8053 12.2736 10.7959 12.2758 10.7865C12.3981 10.4198 12.5181 10.0526 12.6396 9.68514C12.6456 9.66826 12.6501 9.65214 12.6595 9.63601C12.6584 9.64457 12.6571 9.65308 12.6553 9.66151C12.6006 9.92701 12.5436 10.1918 12.4892 10.4565C12.4648 10.5806 12.439 10.7051 12.4131 10.8293C12.4113 10.8396 12.408 10.8495 12.4033 10.8589L12.2586 11.2208C12.256 11.226 12.2541 11.2316 12.2515 11.2384C12.274 11.247 12.2923 11.2556 12.3141 11.2643L12.3227 11.2463L12.4738 10.8911C12.4798 10.8791 12.4843 10.8675 12.4922 10.8578L13.1466 9.85951C13.1507 9.85426 13.1541 9.84901 13.1605 9.84526C13.1578 9.85051 13.156 9.85576 13.1526 9.86101L12.6145 10.9298C12.6088 10.9399 12.6032 10.95 12.5965 10.959C12.5185 11.0629 12.4401 11.1668 12.3632 11.2699C12.3595 11.2758 12.3553 11.2814 12.3508 11.2868L12.4041 11.3284C12.4083 11.3239 12.4122 11.3192 12.4157 11.3141C12.4952 11.2129 12.5743 11.1113 12.655 11.01C12.6638 10.9986 12.6738 10.9881 12.6846 10.9785C12.9808 10.7138 13.2775 10.4494 13.5741 10.1854C13.579 10.1813 13.5823 10.1771 13.5902 10.1749L13.5805 10.1869C13.4593 10.3238 13.3382 10.4599 13.2152 10.596C13.069 10.7591 12.9246 10.9219 12.7795 11.085C12.772 11.0933 12.763 11.1004 12.7551 11.1071L12.4502 11.3468L12.4352 11.3588C12.4495 11.3768 12.4622 11.394 12.4772 11.412L12.4933 11.4L12.8057 11.166C12.8137 11.1603 12.8219 11.1551 12.8305 11.1503C13.1905 10.9695 13.5482 10.7895 13.906 10.6088C13.912 10.6061 13.9168 10.6039 13.9232 10.6039C13.9067 10.6148 13.8913 10.6253 13.8748 10.6354C13.5512 10.848 13.2276 11.0606 12.9028 11.2733C12.8938 11.2785 12.8856 11.2838 12.8758 11.2879C12.7562 11.3396 12.6355 11.3906 12.517 11.442L12.4978 11.4495C12.508 11.4705 12.5151 11.4904 12.5241 11.5114L12.5413 11.5058C12.6617 11.4581 12.7813 11.4083 12.9028 11.3621C12.9328 11.3501 12.9658 11.3449 12.9985 11.3381L13.5508 11.2234C13.7226 11.1881 13.8928 11.1521 14.065 11.1165C14.0807 11.1131 14.0953 11.1098 14.1118 11.1068C14.116 11.1068 14.1197 11.106 14.1257 11.1083L14.0732 11.1255C13.7068 11.2466 13.3416 11.3674 12.9752 11.487C12.9475 11.4968 12.9167 11.4994 12.8878 11.5039C12.8057 11.5163 12.7247 11.5271 12.6448 11.5388C12.6156 11.5429 12.5867 11.5474 12.5575 11.5511L12.5361 11.5549C12.5383 11.577 12.5417 11.5976 12.5432 11.6216L12.5998 11.6156L12.8023 11.5916C12.853 11.5853 12.9058 11.5781 12.9587 11.5733C12.9823 11.5714 13.0063 11.5736 13.0307 11.5748C13.0821 11.577 13.1335 11.5815 13.1871 11.5838L13.4901 11.6018C13.5351 11.6044 13.5801 11.6063 13.6266 11.6093L13.9356 11.6269C14.0087 11.6314 14.0841 11.6348 14.1568 11.6393C14.1749 11.6403 14.1929 11.6419 14.2108 11.6441L14.1561 11.6486L13.9292 11.661L13.6483 11.6775L13.4365 11.6888C13.339 11.6948 13.2396 11.7004 13.1413 11.7068C13.0873 11.709 13.0318 11.7143 12.9775 11.7146C12.9463 11.7154 12.9137 11.7094 12.8833 11.706C12.8167 11.6982 12.7501 11.6902 12.6835 11.682L12.5556 11.6666H12.5432C12.5417 11.6884 12.5383 11.7098 12.5361 11.7326C12.6683 11.7522 12.8005 11.7713 12.9328 11.79C12.9718 11.7949 13.006 11.8103 13.0427 11.8219L14.1092 12.174C14.1161 12.1755 14.1227 12.1784 14.1283 12.1826C14.1193 12.1811 14.1107 12.1796 14.1017 12.1789L13.1755 11.9858L12.931 11.9348C12.9231 11.9325 12.9126 11.9295 12.904 11.9254C12.7836 11.8778 12.6628 11.829 12.5417 11.7806L12.5256 11.775C12.5168 11.7955 12.5077 11.8159 12.4982 11.8361L12.5181 11.8455C12.6377 11.8965 12.7566 11.9471 12.8755 11.9985C12.8848 12.0026 12.8942 12.0075 12.904 12.0143L13.9022 12.6683C13.9071 12.672 13.9135 12.6765 13.9176 12.6836C13.9127 12.6806 13.9071 12.6788 13.903 12.6758L13.3828 12.4148C13.2013 12.3225 13.0183 12.231 12.835 12.1388C12.8233 12.133 12.8123 12.1258 12.8023 12.1174C12.6992 12.0405 12.595 11.9633 12.4918 11.8856C12.4872 11.8818 12.4823 11.8782 12.4772 11.8751C12.463 11.8924 12.4502 11.9093 12.4352 11.9273L12.4495 11.9385C12.55 12.0188 12.6523 12.099 12.7532 12.1789C12.7647 12.1871 12.7751 12.1967 12.7843 12.2074L13.579 13.0965C13.5822 13.101 13.5847 13.1059 13.5865 13.1111C13.5823 13.1066 13.5767 13.1036 13.5726 13.1003C13.2745 12.8336 12.976 12.5685 12.6771 12.3023C12.6703 12.2963 12.6643 12.2895 12.6591 12.282L12.4161 11.9723C12.4127 11.9674 12.4086 11.9629 12.4045 11.958C12.3872 11.9723 12.3703 11.985 12.3531 12C12.3546 12.0045 12.358 12.0094 12.361 12.0139L12.5968 12.3281C12.6036 12.3373 12.6096 12.3469 12.6148 12.357C12.7937 12.7118 12.9722 13.0673 13.1507 13.4224C13.1536 13.4272 13.1555 13.4326 13.1563 13.4381H13.1552V13.4351Z" fill="#010088"/>
<path fill-rule="evenodd" clip-rule="evenodd" d="M13.1514 13.4351C13.1551 13.4389 13.1574 13.443 13.1604 13.4464C13.1585 13.4471 13.1585 13.4482 13.1562 13.4486C13.1555 13.4434 13.1529 13.44 13.1521 13.4351H13.1514Z" fill="#010088"/>
</svg>
