<svg width="28" height="28" viewBox="0 0 28 28" fill="none" xmlns="http://www.w3.org/2000/svg">
<path d="M20.3848 8.13477L21.6152 9.36523L11.375 19.6055L6.38477 14.6152L7.61523 13.3848L11.375 17.1445L20.3848 8.13477ZM14 0C15.2852 0 16.5247 0.164062 17.7188 0.492188C18.9128 0.820312 20.0293 1.28971 21.0684 1.90039C22.1074 2.51107 23.0508 3.24023 23.8984 4.08789C24.7461 4.93555 25.4753 5.88346 26.0859 6.93164C26.6966 7.97982 27.166 9.09635 27.4941 10.2812C27.8223 11.4661 27.9909 12.7057 28 14C28 15.2852 27.8359 16.5247 27.5078 17.7188C27.1797 18.9128 26.7103 20.0293 26.0996 21.0684C25.4889 22.1074 24.7598 23.0508 23.9121 23.8984C23.0645 24.7461 22.1165 25.4753 21.0684 26.0859C20.0202 26.6966 18.9036 27.166 17.7188 27.4941C16.5339 27.8223 15.2943 27.9909 14 28C12.7148 28 11.4753 27.8359 10.2812 27.5078C9.08724 27.1797 7.9707 26.7103 6.93164 26.0996C5.89258 25.4889 4.94922 24.7598 4.10156 23.9121C3.25391 23.0645 2.52474 22.1165 1.91406 21.0684C1.30339 20.0202 0.833984 18.9082 0.505859 17.7324C0.177734 16.5566 0.00911458 15.3125 0 14C0 12.7148 0.164062 11.4753 0.492188 10.2812C0.820312 9.08724 1.28971 7.9707 1.90039 6.93164C2.51107 5.89258 3.24023 4.94922 4.08789 4.10156C4.93555 3.25391 5.88346 2.52474 6.93164 1.91406C7.97982 1.30339 9.0918 0.833984 10.2676 0.505859C11.4434 0.177734 12.6875 0.00911458 14 0ZM14 26.25C15.1211 26.25 16.2012 26.1042 17.2402 25.8125C18.2793 25.5208 19.2546 25.1107 20.166 24.582C21.0775 24.0534 21.9069 23.4108 22.6543 22.6543C23.4017 21.8978 24.0397 21.0729 24.5684 20.1797C25.097 19.2865 25.5117 18.3112 25.8125 17.2539C26.1133 16.1966 26.2591 15.112 26.25 14C26.25 12.8789 26.1042 11.7988 25.8125 10.7598C25.5208 9.7207 25.1107 8.74544 24.582 7.83398C24.0534 6.92253 23.4108 6.0931 22.6543 5.3457C21.8978 4.59831 21.0729 3.96029 20.1797 3.43164C19.2865 2.90299 18.3112 2.48828 17.2539 2.1875C16.1966 1.88672 15.112 1.74089 14 1.75C12.8789 1.75 11.7988 1.89583 10.7598 2.1875C9.7207 2.47917 8.74544 2.88932 7.83398 3.41797C6.92253 3.94661 6.0931 4.58919 5.3457 5.3457C4.59831 6.10221 3.96029 6.92708 3.43164 7.82031C2.90299 8.71354 2.48828 9.6888 2.1875 10.7461C1.88672 11.8034 1.74089 12.888 1.75 14C1.75 15.1211 1.89583 16.2012 2.1875 17.2402C2.47917 18.2793 2.88932 19.2546 3.41797 20.166C3.94661 21.0775 4.58919 21.9069 5.3457 22.6543C6.10221 23.4017 6.92708 24.0397 7.82031 24.5684C8.71354 25.097 9.6888 25.5117 10.7461 25.8125C11.8034 26.1133 12.888 26.2591 14 26.25Z" fill="white"/>
</svg>
