<svg width="25" height="25" viewBox="0 0 25 25" fill="none" xmlns="http://www.w3.org/2000/svg">
<path d="M13.1579 23.5294V21.6912C13.1579 21.299 13.2294 20.925 13.3724 20.5691C13.5153 20.2132 13.707 19.901 13.9474 19.6324L20.4276 12.3897C20.625 12.1691 20.8443 12.0098 21.0855 11.9118C21.3267 11.8137 21.568 11.7647 21.8092 11.7647C22.0724 11.7647 22.3246 11.8201 22.5658 11.9309C22.807 12.0417 23.0263 12.2069 23.2237 12.4265L24.4408 13.7868C24.6162 14.0074 24.7535 14.2525 24.8526 14.5221C24.9517 14.7917 25.0009 15.0613 25 15.3309C24.9991 15.6005 24.9553 15.8765 24.8684 16.1588C24.7816 16.4412 24.639 16.6922 24.4408 16.9118L17.9605 24.1544C17.7193 24.424 17.4399 24.6324 17.1224 24.7794C16.8048 24.9265 16.4702 25 16.1184 25H14.4737C14.1009 25 13.7886 24.8588 13.5368 24.5765C13.2851 24.2941 13.1588 23.9451 13.1579 23.5294ZM0 22.0588V19.4118C0 18.5784 0.192105 17.8127 0.576316 17.1147C0.960526 16.4167 1.47017 15.8833 2.10526 15.5147C3.46491 14.7549 4.84649 14.1853 6.25 13.8059C7.65351 13.4265 9.07894 13.2363 10.5263 13.2353C11.3377 13.2353 12.1382 13.2907 12.9276 13.4015C13.7171 13.5123 14.5066 13.6897 15.296 13.9338L11.6776 17.9779C11.3048 18.3946 11.0197 18.8725 10.8224 19.4118C10.625 19.951 10.5263 20.5147 10.5263 21.1029V23.5294H1.31579C0.942982 23.5294 0.630702 23.3882 0.378947 23.1059C0.127193 22.8235 0.000877193 22.4745 0 22.0588ZM21.8092 16.7647L23.0263 15.3309L21.8092 13.9706L20.5592 15.3676L21.8092 16.7647ZM10.5263 11.7647C9.07894 11.7647 7.83991 11.1887 6.80921 10.0368C5.77851 8.8848 5.26316 7.5 5.26316 5.88235C5.26316 4.26471 5.77851 2.8799 6.80921 1.72794C7.83991 0.575981 9.07894 0 10.5263 0C11.9737 0 13.2127 0.575981 14.2434 1.72794C15.2741 2.8799 15.7895 4.26471 15.7895 5.88235C15.7895 7.5 15.2741 8.8848 14.2434 10.0368C13.2127 11.1887 11.9737 11.7647 10.5263 11.7647Z" fill="#CF992C"/>
</svg>
