<svg width="28" height="28" viewBox="0 0 28 28" fill="none" xmlns="http://www.w3.org/2000/svg">
<path d="M14 11.2C15.4852 11.2 16.9096 10.61 17.9598 9.5598C19.01 8.50959 19.6 7.08521 19.6 5.6C19.6 4.11479 19.01 2.69041 17.9598 1.6402C16.9096 0.589998 15.4852 0 14 0C12.5148 0 11.0904 0.589998 10.0402 1.6402C8.99 2.69041 8.4 4.11479 8.4 5.6C8.4 7.08521 8.99 8.50959 10.0402 9.5598C11.0904 10.61 12.5148 11.2 14 11.2ZM4.9 15.4C5.82826 15.4 6.7185 15.0313 7.37487 14.3749C8.03125 13.7185 8.4 12.8283 8.4 11.9C8.4 10.9717 8.03125 10.0815 7.37487 9.42513C6.7185 8.76875 5.82826 8.4 4.9 8.4C3.97174 8.4 3.0815 8.76875 2.42513 9.42513C1.76875 10.0815 1.4 10.9717 1.4 11.9C1.4 12.8283 1.76875 13.7185 2.42513 14.3749C3.0815 15.0313 3.97174 15.4 4.9 15.4ZM26.6 11.9C26.6 12.8283 26.2313 13.7185 25.5749 14.3749C24.9185 15.0313 24.0283 15.4 23.1 15.4C22.1717 15.4 21.2815 15.0313 20.6251 14.3749C19.9687 13.7185 19.6 12.8283 19.6 11.9C19.6 10.9717 19.9687 10.0815 20.6251 9.42513C21.2815 8.76875 22.1717 8.4 23.1 8.4C24.0283 8.4 24.9185 8.76875 25.5749 9.42513C26.2313 10.0815 26.6 10.9717 26.6 11.9ZM14 12.6C15.8565 12.6 17.637 13.3375 18.9497 14.6503C20.2625 15.963 21 17.7435 21 19.6V28H7V19.6C7 17.7435 7.7375 15.963 9.05025 14.6503C10.363 13.3375 12.1435 12.6 14 12.6ZM4.2 19.6C4.2 18.6298 4.34 17.6932 4.6032 16.8084L4.3652 16.828C3.16523 16.9598 2.05613 17.5298 1.25057 18.4289C0.445006 19.328 -0.000313262 20.4928 1.65337e-07 21.7V28H4.2V19.6ZM28 28V21.7C28.0002 20.4517 27.5239 19.2504 26.6684 18.3414C25.813 17.4323 24.6428 16.884 23.3968 16.8084C23.6586 17.6932 23.8 18.6298 23.8 19.6V28H28Z" fill="white"/>
</svg>
