<svg width="25" height="25" viewBox="0 0 25 25" fill="none" xmlns="http://www.w3.org/2000/svg">
<path d="M16.2509 15C17.9086 15 19.4984 15.6585 20.6706 16.8306C21.8427 18.0027 22.5012 19.5924 22.5012 21.25V22.5C22.5012 23.163 22.2378 23.7989 21.769 24.2678C21.3001 24.7366 20.6642 25 20.0011 25H2.50014C1.83706 25 1.20114 24.7366 0.732274 24.2678C0.263407 23.7989 0 23.163 0 22.5V21.25C0 19.5924 0.658517 18.0027 1.83068 16.8306C3.00285 15.6585 4.59265 15 6.25035 15H16.2509ZM11.2506 0C12.9083 0 14.4981 0.65848 15.6703 1.83058C16.8425 3.00269 17.501 4.5924 17.501 6.25C17.501 7.9076 16.8425 9.49732 15.6703 10.6694C14.4981 11.8415 12.9083 12.5 11.2506 12.5C9.59293 12.5 8.00313 11.8415 6.83096 10.6694C5.65879 9.49732 5.00028 7.9076 5.00028 6.25C5.00028 4.5924 5.65879 3.00269 6.83096 1.83058C8.00313 0.65848 9.59293 0 11.2506 0ZM23.7513 10C24.0699 10.0004 24.3764 10.1223 24.6081 10.3411C24.8398 10.5598 24.9792 10.8587 24.9978 11.1767C25.0165 11.4948 24.913 11.808 24.7085 12.0523C24.504 12.2966 24.214 12.4536 23.8976 12.4913L23.7513 12.5H18.751C18.4324 12.4996 18.126 12.3777 17.8943 12.1589C17.6626 11.9402 17.5232 11.6413 17.5045 11.3233C17.4858 11.0052 17.5893 10.692 17.7938 10.4477C17.9983 10.2034 18.2884 10.0464 18.6048 10.0087L18.751 10H23.7513Z" fill="#FF0D0D"/>
</svg>
