<svg width="29" height="28" viewBox="0 0 29 28" fill="none" xmlns="http://www.w3.org/2000/svg">
<path d="M14.1538 0V2.33333C6.46017 2.33333 0.153809 8.11417 0.153809 15.1667C0.153809 22.2192 6.46017 28 14.1538 28C21.8474 28 28.1538 22.2192 28.1538 15.1667C28.1538 11.7285 26.7411 8.62167 24.216 6.307L22.4265 7.9485C24.4845 9.83267 25.6084 12.3037 25.6084 15.1667C25.6084 20.9475 20.4602 25.6667 14.1538 25.6667C7.84744 25.6667 2.69926 20.9475 2.69926 15.1667C2.69926 9.38583 7.84744 4.66667 14.1538 4.66667V7L20.5174 3.5L14.1538 0ZM16.8189 7.65683L13.6371 13.4902C13.2357 13.5896 12.8814 13.8079 12.6296 14.1112C12.3777 14.4144 12.2424 14.7855 12.2447 15.1667C12.2447 15.6308 12.4459 16.0759 12.8039 16.4041C13.1619 16.7323 13.6475 16.9167 14.1538 16.9167H14.234L18.3296 20.6722L20.1598 18.9945L16.0629 15.2402V15.1667C16.0629 14.9368 15.9916 14.7117 15.9038 14.5098L19.1251 8.6765L16.8189 7.65567V7.65683Z" fill="white"/>
</svg>
